<mxfile host="app.diagrams.net" modified="2024-04-02T19:32:18.420Z" agent="Mozilla/5.0 (Macintosh; Intel Mac OS X 10_15_7) AppleWebKit/537.36 (KHTML, like Gecko) Chrome/123.0.0.0 Safari/537.36" etag="2ea-gECQwaw12BBZmgmX" version="24.0.7" type="github">
  <diagram name="Page-1" id="3OzVXapQxGBqhg9Vh2Or">
    <mxGraphModel dx="1103" dy="713" grid="1" gridSize="1" guides="1" tooltips="1" connect="1" arrows="1" fold="1" page="1" pageScale="1" pageWidth="1169" pageHeight="827" math="0" shadow="0">
      <root>
        <mxCell id="0" />
        <mxCell id="1" parent="0" />
        <mxCell id="NXsdGgOJUFReOd44QVA4-1" value="" style="shape=image;verticalLabelPosition=bottom;labelBackgroundColor=default;verticalAlign=top;aspect=fixed;imageAspect=0;image=https://i.pinimg.com/736x/e7/a1/15/e7a115c120930f46f62fcd46d38a43f1.jpg;" vertex="1" parent="1">
          <mxGeometry x="29" y="121" width="492.12" height="387" as="geometry" />
        </mxCell>
        <mxCell id="NXsdGgOJUFReOd44QVA4-6" value="" style="ellipse;whiteSpace=wrap;html=1;fillColor=none;strokeColor=#33FF33;strokeWidth=5;" vertex="1" parent="1">
          <mxGeometry x="332" y="166" width="14" height="13" as="geometry" />
        </mxCell>
        <mxCell id="NXsdGgOJUFReOd44QVA4-8" value="" style="ellipse;whiteSpace=wrap;html=1;fillColor=none;strokeColor=#33FF33;strokeWidth=5;" vertex="1" parent="1">
          <mxGeometry x="332" y="183" width="14" height="13" as="geometry" />
        </mxCell>
        <mxCell id="NXsdGgOJUFReOd44QVA4-9" value="" style="ellipse;whiteSpace=wrap;html=1;fillColor=none;strokeColor=#33FF33;strokeWidth=5;" vertex="1" parent="1">
          <mxGeometry x="333" y="149" width="14" height="13" as="geometry" />
        </mxCell>
        <mxCell id="NXsdGgOJUFReOd44QVA4-12" value="" style="ellipse;whiteSpace=wrap;html=1;fillColor=none;strokeColor=#33FF33;strokeWidth=5;" vertex="1" parent="1">
          <mxGeometry x="356" y="167" width="14" height="13" as="geometry" />
        </mxCell>
        <mxCell id="NXsdGgOJUFReOd44QVA4-14" value="" style="ellipse;whiteSpace=wrap;html=1;fillColor=none;strokeColor=#33FF33;strokeWidth=5;" vertex="1" parent="1">
          <mxGeometry x="356" y="182" width="14" height="13" as="geometry" />
        </mxCell>
        <mxCell id="NXsdGgOJUFReOd44QVA4-15" value="" style="ellipse;whiteSpace=wrap;html=1;fillColor=none;strokeColor=#33FF33;strokeWidth=5;" vertex="1" parent="1">
          <mxGeometry x="356" y="216" width="14" height="13" as="geometry" />
        </mxCell>
        <mxCell id="NXsdGgOJUFReOd44QVA4-17" value="" style="endArrow=none;html=1;rounded=0;exitX=0.719;exitY=0.266;exitDx=0;exitDy=0;exitPerimeter=0;strokeColor=none;" edge="1" parent="1">
          <mxGeometry width="50" height="50" relative="1" as="geometry">
            <mxPoint x="371.0042799999998" y="223.00200000000012" as="sourcePoint" />
            <mxPoint x="371" y="69" as="targetPoint" />
          </mxGeometry>
        </mxCell>
        <mxCell id="NXsdGgOJUFReOd44QVA4-18" value="" style="endArrow=none;html=1;rounded=0;exitX=1;exitY=0.5;exitDx=0;exitDy=0;strokeWidth=3;strokeColor=#33FF33;" edge="1" parent="1">
          <mxGeometry width="50" height="50" relative="1" as="geometry">
            <mxPoint x="369.99999999995316" y="222.5" as="sourcePoint" />
            <mxPoint x="331" y="84" as="targetPoint" />
            <Array as="points">
              <mxPoint x="370" y="133" />
            </Array>
          </mxGeometry>
        </mxCell>
        <mxCell id="NXsdGgOJUFReOd44QVA4-19" value="" style="endArrow=none;html=1;rounded=0;exitX=1;exitY=0.5;exitDx=0;exitDy=0;strokeWidth=3;strokeColor=#33FF33;" edge="1" parent="1">
          <mxGeometry width="50" height="50" relative="1" as="geometry">
            <mxPoint x="331.61999999995317" y="190.5" as="sourcePoint" />
            <mxPoint x="331.31" y="57" as="targetPoint" />
          </mxGeometry>
        </mxCell>
        <mxCell id="NXsdGgOJUFReOd44QVA4-20" value="&lt;font style=&quot;font-size: 9px;&quot;&gt;Pi Sugar Board&lt;/font&gt;" style="rhombus;whiteSpace=wrap;html=1;strokeWidth=4;strokeColor=#33FF33;" vertex="1" parent="1">
          <mxGeometry x="280" y="6" width="103" height="60" as="geometry" />
        </mxCell>
        <mxCell id="NXsdGgOJUFReOd44QVA4-24" value="" style="endArrow=none;html=1;rounded=0;" edge="1" parent="1">
          <mxGeometry width="50" height="50" relative="1" as="geometry">
            <mxPoint x="362" y="155.16" as="sourcePoint" />
            <mxPoint x="543" y="155.16" as="targetPoint" />
          </mxGeometry>
        </mxCell>
      </root>
    </mxGraphModel>
  </diagram>
</mxfile>
